<?xml version="1.0" standalone="no"?>
<!DOCTYPE svg PUBLIC "-//W3C//DTD SVG 1.1//EN" "http://www.w3.org/Graphics/SVG/1.1/DTD/svg11.dtd">
<svg xmlns="http://www.w3.org/2000/svg">
<metadata>Generated by Fontastic.me</metadata>
<defs>
<font id="feedback-now-font" horiz-adv-x="512">
<font-face font-family="feedback-now-font" units-per-em="512" ascent="480" descent="-32"/>
<missing-glyph horiz-adv-x="512" />

<glyph glyph-name="0-axes-graph-1-3-4-6" unicode="&#97;" d="M22 30l0 48 23 0 0 17-23 0 0 87 23 0 0 17-23 0 0 85 23 0 0 18-23 0 0 86 23 0 0 17-23 0 0 41-17 0 0-434 502 0 0 18z"/>
<glyph glyph-name="graph1-calque2" unicode="&#98;" d="M102 200l0 36c0 5-2 9-4 9l-27 0c-2 0-3-5-3-9l0-36z m56 20l0 87c0 5-2 9-4 9l-27 0c-2 0-3-4-3-9l0-87z m54 114l0 43c0 6-2 9-3 9l-27 0c-3 0-4-4-4-9l0-43z m56 6l0 109c0 5-2 9-3 9l-28 0c-2 0-3-5-3-9l0-109z m166-52l0 51c0 5-1 9-3 9l-27 0c-3 0-4-5-4-9l0-51z m23-78l33 0 0 65c0 5-1 9-3 9l-27 0c-3 0-4-5-4-9l0-65c0 0 1 0 1 0z m-110 147l33 0 0 20c0 6-2 9-3 9l-28 0c-2 0-3-4-3-9l1-20c-1 0 0 0 0 0z m-56-37l33 0c0 0 0 0 1 0l0 90c0 5-2 9-4 9l-27 0c-2 0-3-5-3-9l0-90c-1 0-1 0 0 0z"/>
<glyph glyph-name="graph1-calque3" unicode="&#99;" d="M68 56c0-6 2-11 3-11l27 0c3 0 4 6 4 11l0 144-34 0z m56 0c0-6 1-11 3-11l27 0c3 0 4 6 4 11l0 164-34 0c0 0 0-164 0-164z m54-1c-1-6 2-10 4-10l27 0c2 0 3 5 3 10l0 279-34 0z m56 0c0-6 2-10 3-10l28 0c2 0 3 6 3 10l0 285-34 0z m166 0c-1-6 2-10 4-10l27 0c2 0 3 6 3 10l0 233-34 0c0 0 0-233 0-233z m57 155l-1-152c0-8 2-12 4-12l27 0c2 0 3 5 3 11l0 153z m-110 147c0 0-1 0 0 0l-1-302c-1-5 1-10 3-10l28 0c2 0 3 5 3 10l0 302z m-56-37c-1 0-1 0 0 0l-1-265c0-6 1-10 3-10l28 0c2 0 3 6 3 10l0 265c0 0 0 0-1 0z"/>
<glyph glyph-name="graph2-calque1" unicode="&#100;" d="M244 155l-228 0 0 34 17 0 0 12-17 0 0 62 17 0 0 12-17 0 0 60 17 0 0 13-17 0 0 61 17 0 0 12-17 0 0 29-11 0 0-307 235 0c1 4 3 8 4 12z"/>
<glyph glyph-name="graph2-calque2" unicode="&#101;" d="M74 275l0 26c0 3-1 6-3 6l-19 0c-1 0-2-4-2-6l0-26z m39 15l0 61c0 4-1 7-3 7l-19 0c-2 0-3-4-3-7l0-61c0 0 25 0 25 0z m39 80l0 31c0 4-1 6-3 6l-19 0c-2 0-3-3-3-6l0-31c0 0 25 0 25 0z m39 4l0 77c0 4-1 7-2 7l-19 0c-2 0-3-4-3-7l0-77z m118-36l0 36c0 3-1 6-3 6l-19 0c-2 0-3-3-3-6l0-36z m15-64l24 0 0 45c0 3-1 6-3 6l-19 0c-2 0-2-4-2-7z m-77 112l23 0 0 15c0 4-1 6-3 6l-19 0c-1 0-1-3-1-6l0-15c-1 0 0 0 0 0z m-40-26l23 0c0 0-1 0 0 0l0 64c0 4-1 7-2 7l-19 0c-1 0-2-4-2-7z"/>
<glyph glyph-name="graph2-calque3" unicode="&#102;" d="M50 173c0-4 1-7 2-7l19 0c2 0 3 4 3 7l0 102-24 0z m38 0c0-4 1-7 3-7l19 0c2 0 3 4 3 7l0 117-25 0z m39-1c-1-4 1-7 3-7l19 0c2 0 3 4 3 7l0 198-25 0c0 0 0-198 0-198z m40 0c0-4 1-7 3-7l19 0c2 0 2 4 2 7l0 202-24 0c0 0 0-202 0-202z m40 188l-1-187c0-4 1-7 3-7l19 0c1 0 2 4 2 7l0 187c0 0 0 0-1 0z m117-125c7 2 16 5 24 6l0 41-24 0 0 1z m-15-7l0 110-25 0c0 0 0-80 0-126 8 7 16 12 25 16z m-61-62c7 12 14 23 22 33l0 187-23 0-1-213c-1-3 1-7 2-7z"/>
<glyph glyph-name="graph2-calque4" unicode="&#103;" d="M370 221c-61 0-112-50-112-112 0-61 50-112 112-112 63 0 112 51 112 112 0 62-50 112-112 112z m0-201c-49 0-89 40-89 89 0 49 40 90 89 90 49 0 90-41 90-90 0-49-41-89-90-89z m6 145l-18 0 0-67 59-36 9 15-50 30z"/>
<glyph glyph-name="graph3-calque1" unicode="&#104;" d="M179 81l0-28c0-2 5-3 11-3l295 0c6 0 11 1 11 3l0 28c0 3-6 4-11 4l-295 0c-7 0-11-1-11-4z m0 57l0-28c0-3 5-3 11-3l295 0c6 0 11 1 11 3l0 28c0 3-6 4-11 4l-295 0c-7 0-11-1-11-4z m0 58l0-28c0-3 5-4 11-4l295 0c6 0 11 2 11 4l0 28c0 3-6 4-11 4l-295 0c-7 0-11-1-11-4z m0 57l0-28c0-3 5-4 11-4l295 0c6 0 11 2 11 4l0 28c0 3-6 3-11 3l-295 0c-7 0-11 0-11-3z m0 57l0-28c0-3 5-4 11-4l295 0c6 0 11 2 11 4l0 28c0 2-6 3-11 3l-295 0c-7 0-11-1-11-3z m0 58l0-28c0-3 5-4 11-4l295 0c6 0 11 2 11 4l0 28c0 2-6 3-11 3l-295 0c-7 0-11-1-11-3z m0 57l0-28c0-2 5-3 11-3l295 0c6 0 11 2 11 3l0 28c0 3-6 4-11 4l-295 0c-7 0-11-1-11-4z"/>
<glyph glyph-name="graph3-calque2" unicode="&#105;" d="M163 81l0-28c0-2 5-3 10-3l296 0c6 0 10 1 10 3l0 28c0 3-5 4-10 4l-296 0c-6 0-10-1-10-4z m-16 57l0-28c0-3 6-3 11-3l295 0c7 0 11 1 11 3l0 28c0 3-5 4-11 4l-295 0c-6 0-11-1-11-4z m-49 58l0-28c0-3 5-4 10-4l296 0c6 0 10 2 10 4l0 28c0 3-5 4-10 4l-296 0c-6 0-10-1-10-4z m27 57l0-28c0-3 5-4 10-4l296 0c6 0 11 2 11 4l0 28c0 3-6 3-11 3l-296 0c-6 0-10 0-10-3z m38 57l0-28c0-3 5-4 10-4l296 0c6 0 10 2 10 4l0 28c0 2-5 3-10 3l-296 0c-6 0-10-1-10-3z m-20 58l0-28c0-3 5-4 11-4l295 0c6 0 11 2 11 4l0 28c0 2-6 3-11 3l-295 0c-7 0-11-1-11-3z m-38 57l0-28c0-2 5-3 11-3l295 0c6 0 11 2 11 3l0 28c0 3-6 4-11 4l-295 0c-7 0-11-1-11-4z"/>
<glyph glyph-name="graph3-calque3" unicode="&#106;" d="M72 368l0-28c0-3 6-4 11-4l313 0c6 0 10 2 10 4l0 28c0 2-5 3-10 3l-313 0c-6 0-11-2-11-3z m0-58l0-28c0-3 6-4 11-4l318 0c6 0 11 2 11 4l0 28c0 2-6 3-11 3l-318 0c-6 1-11-1-11-3z m0-58l0-28c0-3 6-4 11-4l259 0c7 0 11 2 11 4l0 28c0 3-5 4-11 4l-259 0c-6 1-11-1-11-4z m0-56l0-28c0-3 6-4 11-4l169 0c6 0 11 2 11 4l0 28c0 3-6 4-11 4l-169 0c-6 0-11-2-11-4z m0-58l0-28c0-3 6-3 11-3l338 0c6 0 11 1 11 3l0 28c0 3-6 4-11 4l-338 0c-6 1-11-1-11-4z m0-57l0-28c0-2 6-3 11-3l295 0c7 0 11 1 11 3l0 28c0 3-5 4-11 4l-295 0c-6 0-11-1-11-4z m0 344l0-28c0-2 6-3 11-3l169 0c6 0 11 2 11 3l0 28c0 3-6 4-11 4l-169 0c-6 0-11-2-11-4z"/>
<glyph glyph-name="graph4-calque1" unicode="&#107;" d="M99 192l118 0 0-143-118 0z m206 66l118 0 0-208-118 0z m-40-208l-9 0 0 18 9 0z m0 37l-9 0 0 18 9 0z m0 36l-9 0 0 18 9 0z m0 36l-9 0 0 18 9 0z m0 37l-9 0 0 18 9 0z m0 36l-9 0 0 18 9 0z m0 37l-9 0 0 18 9 0z m0 36l-9 0 0 18 9 0z m0 37l-9 0 0 18 9 0z m0 36l-9 0 0 18 9 0z"/>
<glyph glyph-name="graph4-calque2" unicode="&#108;" d="M99 380l118 0 0-188-118 0z m206-330l118 0 0-1-118 0z m0 330l118 0 0-122-118 0z"/>
<glyph glyph-name="graph4-calque3" unicode="&#109;" d="M146 497l26 0 32-92-25 0-6 17-30 0-6-17-24 0z m2-55l20 0-10 31z m177-36l0 91 44 0c11 0 18-2 24-6 5-3 7-10 7-17 0-4-1-9-4-12-1-3-5-5-10-7 6-1 10-4 12-7 3-4 5-8 5-14 0-5-1-10-4-13-3-5-5-7-10-10-3-2-6-3-10-4-3-1-10-1-19-1z m22 55l19 0c3 0 7 1 9 2 2 1 2 4 2 7 0 2 0 4-2 6-2 2-5 2-8 2l-20 0z m0-37l17 0c5 0 9 1 12 3 2 1 3 4 3 7 0 4-1 6-3 8-3 1-6 2-9 2l-20 0z"/>
<glyph glyph-name="graph5-calque1" unicode="&#110;" d="M242 155l-226 0 0 34 17 0 0 11-17 0 0 62 17 0 0 12-17 0 0 60 17 0 0 12-17 0 0 61 17 0 0 12-17 0 0 31-11 0 0-307 245 0c-3 3-6 8-8 12z m-169 120l0 26c0 3-1 6-3 6l-19 0c-1 0-2-4-2-6l0-26z m40 15l0 61c0 4-1 7-3 7l-19 0c-2 0-3-4-3-7l0-61c0 0 25 0 25 0z m39 80l0 31c0 4-1 6-3 6l-19 0c-2 0-3-3-3-6l0-31c0 0 25 0 25 0z m39 4l0 77c0 4-1 7-2 7l-19 0c-2 0-3-4-3-7l0-77z m118-36l0 36c0 3-1 6-3 6l-19 0c-2 0-3-3-3-6l0-36z m15-55l24 0 0 45c0 3-1 6-3 6l-19 0c-2 0-3-4-3-6z m-77 103l23 0 0 15c0 4-1 6-3 6l-19 0c-1 0-2-3-2-6l1-15c-1 0 0 0 0 0z m-40-26l23 0c0 0 0 0 1 0l0 64c0 4-1 7-3 7l-19 0c-1 0-2-4-2-7z m295-172c-12 16-34 20-50 9l-83-58-29 22c10 19 6 45-13 58-20 14-47 9-61-11-14-20-9-47 11-61 13-9 31-11 45-3l37-27-37-26c-14 7-30 7-45-3-20-15-25-42-11-61 15-20 42-25 61-11 19 13 23 38 13 58l29 22 83-58c17-12 39-7 50 9l-102 71z m-200-28c-13 0-23 11-23 22 0 13 11 23 23 23 12 0 22-11 22-23 0-13-11-22-22-22z m0-130c-13 0-23 11-23 22 0 13 11 23 23 23 12 0 22-11 22-23 0-11-11-22-22-22z"/>
<glyph glyph-name="graph5-calque2" unicode="&#111;" d="M50 173c0-4 1-7 2-7l19 0c2 0 3 4 3 7l0 102-24 0z m38 0c0-4 1-7 3-7l19 0c2 0 3 4 3 7l0 117-25 0c0 0 0-117 0-117z m39-1c-1-4 1-7 3-7l19 0c2 0 3 4 3 7l0 198-25 0z m40 0c0-4 1-7 3-7l19 0c2 0 2 4 2 7l0 202-24 0z m40 188l-1-187c0-4 1-7 3-7l19 0c1 0 2 4 2 7l0 187c0 0 0 0-1 0z m133-123c2-1 6-4 8-7l0 53-24 0 0-38c6-2 11-4 16-8z m-51 11c6 1 14 2 20 1l0 89-25 0c0 0 0-46 0-91 1 0 3 1 5 1z m-42-27c6 9 14 16 23 21l0 144-23 0-1-167c1 0 1 1 1 2z"/>
<glyph glyph-name="graph6-calque1" unicode="&#112;" d="M390 61l0 20-16 0 0-20-84 0 0 20-16 0 0-20-84 0 0 20-17 0 0-20-83 0 0 20-17 0 0-20-43 0 0 46 16 0 0 17-16 0 0 83 16 0 0 16-16 0 0 84 16 0 0 16-16 0 0 84 16 0 0 17-16 0 0 40-17 0 0-419 486 0 0 16z m-344 375l11 14 436-317-10-15z"/>
<glyph glyph-name="graph6-calque2" unicode="&#113;" d="M329 215l-20 0 0 22-22 0 0 19 22 0 0 22 20 0 0-22 21 0 0-19-21 0z m-34 67l-20 0 0 21-21 0 0 20 21 0 0 22 20 0 0-22 22 0 0-20-22 0z m-46 74l-20 0 0 21-21 0 0 20 21 0 0 22 20 0 0-22 22 0 0-20-22 0z m-29-129l0 21-21 0 0 19 21 0 0 22 19 0 0-22 22 0 0-19-22 0 0-21z m-114-16l0 22-22 0 0 20 22 0 0 22 19 0 0-22 21 0 0-20-21 0 0-22z m107 116l0-20-22 0 0-22-19 0 0 22-22 0 0 20 22 0 0 22 19 0 0-22z m-73 11l-20 0 0 21-22 0 0 19 22 0 0 22 20 0 0-22 22 0 0-19-22 0z m-33 57l-20 0 0 21-22 0 0 20 22 0 0 22 20 0 0-22 21 0 0-20-21 0z m299-198l-20 0 0 22-21 0 0 18 21 0 0 22 20 0 0-22 22 0 0-18-22 0z m41-86l-19 0 0 22-22 0 0 20 22 0 0 21 19 0 0-21 22 0 0-20-22 0z"/>
<glyph glyph-name="graph7-calque1" unicode="&#114;" d="M377 265c-73 0-131-61-130-134 0-73 61-132 134-131 73 1 132 61 131 135-1 73-61 132-135 130z m0-213c-12 0-20 9-20 20 0 11 8 19 19 19l1 0c11 0 19-9 19-20 0-11-8-19-19-19z m47 94c-2-3-8-8-16-14l-8-6c-4-3-7-6-8-10-1-2-1-3-1-8l0-1-31 0 0 3c0 11 1 17 6 23 7 8 22 18 23 19 2 2 5 3 6 5 3 5 4 8 4 12 0 4-2 9-4 13-3 3-9 5-16 5-7 0-12-3-15-7-3-5-5-10-5-16l0-1-31 0 0 2c1 20 8 34 21 42 8 5 18 8 29 8 16 0 29-4 39-11 11-7 16-19 16-33 0-10-3-17-9-25z m-14 345l-382 0c-13 0-23-10-23-22l0-356c0-13 10-23 23-23l202 0c-2 9-4 18-5 27l-37 0 0 54 40 0c1 4 3 9 5 13l-45 0 0 68 68 0 0-25c3 5 8 10 12 15l0 10 12 0c6 5 13 10 20 13l-31 0 0 64 63 0 0-48c5 2 9 3 14 3l0 45 69 0 0-45c7-2 13-4 18-6l0 191c0 12-10 22-23 22z m-324-374l-63 0 0 54 63 0z m0 67l-63 0 0 68 63 0z m0 81l-63 0 0 64 63 0z m88-148l-75 0 0 54 75 0z m0 67l-75 0 0 68 75 0z m0 81l-75 0 0 64 75 0z m82 0l-68 0 0 64 68 0z m159 133l0-55-69 0 0 55-15 0 0-55-63 0 0 55-12 0 0-55-68 0 0 55-14 0 0-55-75 0 0 55-13 0 0-55-63 0 0 130 392 0z"/>
<glyph glyph-name="graph7-calque2" unicode="&#115;" d="M23 473l392 0 0-75-392 0z"/>
<glyph glyph-name="graph8-calque1" unicode="&#116;" d="M213 499l0-5 6 4c-2 0-4 1-6 1z m18-1l-17-15 0-14 33 26c-6 2-11 3-16 3z m25-5l-43-35 0-15 56 46c-4 1-8 3-13 4z m23-7l-65-53 0-14 77 62c-5 2-8 3-12 5z m19-9l-85-69 0-14 96 77c-4 1-7 4-11 6z m18-11l-103-83 0-15 113 92c-4 1-7 4-10 6z m16-12l-119-96 0-15 127 104c-2 2-5 4-8 7z m15-13l-133-109 0-12 140 113c-3 3-5 5-7 8z m-63-238c0 4 0 6 0 10l-50 87 125 103c18-27 27-58 29-90 5 1 9 1 15 1-3 42-17 79-40 109l-147-120 67-116c1 5 1 11 1 16z"/>
<glyph glyph-name="graph8-calque2" unicode="&#117;" d="M275 138c2 8 4 16 5 25l-81 140c0 0 0 1 0 1l0 195c-103-4-186-89-186-194 0-107 87-194 194-194 21 0 40 4 59 10 4 5 7 11 9 17z"/>
<glyph glyph-name="graph8-calque3" unicode="&#118;" d="M382 32c0 1-1 2-3 2-6 0-11 2-15 7-5 4-6 9-6 15 0 2-1 3-3 3-2 0-3-1-3-3 0-7 3-14 8-19 6-5 12-8 19-8 2 0 3 1 3 3z m124 44c0-6-2-10-6-14-3-3-8-5-13-5l-68 0c0-11-4-20-12-27-7-7-17-12-27-12-11 0-20 4-27 12-7 8-12 17-12 27l-69 0c-6 0-10 2-14 5-3 4-5 8-5 14 5 4 10 9 13 13 5 5 9 10 14 18 4 8 8 16 12 25 2 9 5 19 7 31 2 13 3 26 3 40 0 16 6 30 18 44 11 13 27 21 47 24-1 2-1 4-1 6 0 4 2 7 4 10 3 3 7 5 10 5 4 0 7-2 10-5 3-3 5-6 5-10 0-2 0-3-1-6 19-3 35-11 47-24 11-14 18-28 18-44 0-14 1-27 2-40 2-12 5-22 8-31 2-9 7-16 11-25 5-7 9-13 13-18 4-5 8-10 13-13z"/>
<glyph glyph-name="graph9-calque1" unicode="&#119;" d="M431 491l-394 0c-13 0-23-10-23-22l0-365c0-13 10-23 23-23l219 0 0 26-55 0 0 55 55 0 0 14-55 0 0 70 55 0 0 1c0 4 1 9 3 13l-58 0 0 65 70 0 0-48c4 4 8 7 13 7l0 40 65 0 0-20 2 0c4 5 8 8 13 11l0 9 71 0 0-20 1 0c6 0 13-1 18-5l0 170c0 12-11 22-23 22z m-334-384l-64 0 0 55 64 0z m0 69l-64 0 0 70 64 0z m0 84l-64 0 0 65 64 0z m90-153l-77 0 0 55 77 0z m0 69l-77 0 0 70 77 0z m0 84l-77 0 0 65 77 0z m247 136l0-57-71 0 0 57-14 0 0-57-65 0 0 57-13 0 0-57-70 0 0 57-14 0 0-57-77 0 0 57-13 0 0-57-64 0 0 133 401 0z"/>
<glyph glyph-name="graph9-calque2" unicode="&#120;" d="M33 472l401 0 0-76-401 0z"/>
<glyph glyph-name="graph9-calque3" unicode="&#121;" d="M373 189l-30-31-12 12c-3 3-9 3-12 0-4-4-4-9 0-13l18-18c2-2 4-3 6-3 3 0 5 1 6 3l37 37c4 4 4 9 0 13-3 3-9 3-13 0z m0-74l-30-30-12 12c-3 3-9 3-12 0-4-4-4-9 0-13l18-18c2-2 4-3 6-3 3 0 5 1 6 3l37 37c4 4 4 9 0 13-3 3-9 2-13-1z m34 48c0-5 5-9 9-9l37 0c6 0 9 5 9 9 0 5-4 9-9 9l-37 0c-4 1-9-3-9-9z m46-64l-37 0c-5 0-9-4-9-9 0-4 5-9 9-9l37 0c6 0 9 5 9 9 0 5-3 9-9 9z m28 166l-37 0 0 9c0 5-4 9-9 9l-20 0c-3 10-14 18-26 18-12 0-22-8-26-18l-20 0c-5 0-9-5-9-9l0-9-37 0c-10 0-18-9-18-18l0-222c0-10 8-18 18-18l184 0c10 0 18 8 18 18l0 222c0 9-8 18-18 18z m-129 0l18 0c6 0 9 4 9 9 0 5 5 9 9 9 5 0 9-5 9-9 0-6 5-9 9-9l18 0 0-18-72 0z m129-240l-184 0 0 222 37 0 0-10c0-5 5-9 9-9l92 0c6 0 9 5 9 9l0 10 37 0z"/>
<glyph glyph-name="graph10-calque1" unicode="&#122;" d="M233 90c-10 0-18 8-18 18 0 1 0 2 0 2l0 2-2 2-6-7c0-1 1-3 1-5l3 4c1-11 11-21 23-21 9 0 16 5 20 13l-5 1c-3-5-9-9-16-9z m0 41c-9 0-16-5-20-13l5-2c2 6 9 10 16 10 10 0 18-8 18-18 0-1 0-1 0-1l0-2 2-2 6 6c0 2-1 4-1 6l-3-4c-2 11-11 20-23 20z m-3-15c0 1-2 3-2 2-2 0-3-2-3-2 0-2 1-2 1-3z m12 0c0 1-1 2-3 2-2 0-2-1-2-2 0 0 0 0 0-1l4-3c0 2 0 2 1 4z m-21-10c2-3 3-5 6-7 1-1 4-1 6-1 2 0 4 0 6 1 2 1 4 3 6 6l0 1c0 0 0 0 0 1-1 0-1 0-1 0-2-2-3-3-5-5-2-1-4-2-6-2-3 0-5 1-6 2-2 1-3 2-6 4z m185-16c-10 0-18 8-18 18 0 1 0 2 0 2l0 2-2 2-6-7c0-1 1-3 1-5l4 4c1-11 11-21 22-21 9 0 17 5 20 13l-4 1c-3-5-9-9-17-9z m0 41c-9 0-16-5-20-13l5-2c3 6 9 10 16 10 10 0 18-8 18-18 0-1 0-1 0-1l0-2 2-2 6 6c0 2 0 4 0 6l-5-4c0 11-10 20-22 20z m-5-18c2 1 3 2 3 3 0 1-1 2-2 2l-5-2c0 0 0 0 0-1 1-2 3-3 4-2z m14 3l-4 2c-1-1-1-1-2-2-1-1 1-2 3-3 2-1 3 0 3 3z m-20-17c1-1 1-1 0 0 1 2 3 3 5 4 2 1 5 2 6 2 3 0 5-1 7-2 1-1 2-2 4-5l1 0c0 0 0 0 0 1l0 1c-2 2-3 4-5 6-2 1-5 1-7 1-2 0-4 0-6-1-2-3-4-4-5-7z m-74-9c-10 0-18 8-18 18 0 1 0 2 0 2l0 2-2 2-7-7c0-1 1-3 1-5l4 4c1-11 11-21 22-21 9 0 17 5 20 13l-4 1c-5-5-10-9-16-9z m0 41c-9 0-17-5-20-13l4-2c3 6 9 10 16 10 10 0 19-8 19-18 0-1 0-1 0-1l0-2 1-2 7 6c0 2-1 4-1 6l-4-4c-3 11-12 20-22 20z m-4-15c0 1-1 2-3 2-1 0-2-1-2-2 0-2 1-3 2-3 2 0 3 1 3 3z m11 0c0 1-1 2-3 2-1 0-3-1-3-2 0-2 2-3 3-3 2 0 3 1 3 3z m-19-13c-1 0-1-1 0 0-1-1-1-2 0-2 1 0 1-1 1-1l20 0c1 0 1 0 1 1 1 0 1 1 1 1 0 0 0 1-1 1-1 0-1 1-1 1l-21-1c1 0 0 0 0 0z m121 388l-393 0c-13 0-23-10-23-22l0-365c0-13 10-23 23-23l71 0c-1 14-1 26-1 35 0 12 1 24 3 35l0 11 2 0c1 4 2 9 2 12l0 2-4 0 0 70 77 0 0-33 14 0 0 32 70 0 0-31 13 0 0 31 65 0 0-31 14 0 0 31 71 0 0-31 18 0 0 255c1 12-10 22-22 22z m-333-384l-64 0 0 55 64 0z m0 69l-64 0 0 70 64 0z m0 84l-64 0 0 65 64 0z m90 0l-77 0 0 65 77 0z m84 0l-70 0 0 65 70 0z m78 0l-65 0 0 65 65 0z m85 0l-71 0 0 65 71 0z m0 136l0-57-71 0 0 57-14 0 0-57-65 0 0 57-13 0 0-57-70 0 0 57-14 0 0-57-77 0 0 57-13 0 0-57-64 0 0 133 401 0z m69-219c-3 14-14 14-14 14l-168 1-3 0-167-1c0 0-12 0-15-14-2-16-7-40-7-61 0-20 1-49 5-66 0 0 1-11 12-11 14-1 66-2 168-2 2 0 5 0 7 0 1 0 4 0 6 0 101 0 154 2 168 2 10 1 12 11 12 11 4 18 5 46 5 66-2 22-5 43-9 61z m-270-100c-17 0-31 13-31 30 0 18 14 31 31 31 17 0 31-13 31-31 0-17-14-30-31-30z m88 0c-18 0-31 13-31 30 0 18 13 31 31 31 17 0 30-13 30-31 0-17-14-30-30-30z m85 0c-17 0-30 13-30 30 0 18 13 31 30 31 18 0 31-13 31-31 0-17-13-30-31-30z"/>
<glyph glyph-name="graph10-calque2" unicode="&#65;" d="M33 472l401 0 0-76-401 0z"/>
<glyph glyph-name="graph10-calque3" unicode="&#66;" d="M233 77c-17 0-31 13-31 30l0 1c0 18 14 31 31 31l1 0c17 0 31-13 31-31l0-1c-1-17-15-30-32-30z"/>
<glyph glyph-name="graph10-calque4" unicode="&#67;" d="M321 77c-18 0-31 13-31 30l0 1c0 18 13 31 31 31l0 0c18 0 31-13 31-31l0-1c-1-17-14-30-31-30z"/>
<glyph glyph-name="graph10-calque5" unicode="&#68;" d="M406 77c-17 0-30 13-30 30l0 1c0 18 13 31 30 31 18 0 31-13 31-31l0-1c0-17-13-30-31-30z"/>
<glyph glyph-name="graph-11-12-calque1" unicode="&#69;" d="M22 30l0 48 23 0 0 17-23 0 0 87 23 0 0 17-23 0 0 85 23 0 0 18-23 0 0 86 23 0 0 17-23 0 0 41-17 0 0-434 502 0 0 18z"/>
<glyph glyph-name="graph-11-calque2" unicode="&#70;" d="M414 117l28 0c3 0 4 5 4 9l0 225c0 6-2 8-4 8l-28 0c-2 0-3-4-3-8l0-225c0-5 1-9 3-9z m-56 10l28 0c2 0 3 5 3 10l0 255c0 5-2 10-3 10l-28 0c-3 0-4-5-4-10l0-255c0-5 1-10 4-10z m-58-10l28 0c2 0 3 5 3 9l0 225c0 6-1 8-3 8l-28 0c-3 0-4-4-4-8l0-225c0-5 1-9 4-9z m-57-17l28 0c3 0 4 4 4 7l0 178c0 4-2 8-4 8l-28 0c-3 0-4-4-4-8l0-178c-1-4 0-7 4-7z m-58 39l28 0c3 0 4 5 4 11l0 285c0 7-2 11-4 11l-28 0c-3 0-3-5-3-11l0-286c0-5 1-10 3-10z m-58-22l28 0c3 0 4 5 4 9l0 225c0 6-2 8-4 8l-28 0c-2 0-3-4-3-8l0-225c1-5 2-9 3-9z m-57-20l28 0c3 0 4 3 4 6l0 167c0 4-2 6-4 6l-28 0c-2 0-3-3-3-6l0-168c-1-3 0-5 3-5z m399 42l28 0c2 0 3 5 3 11l0 286c0 6-2 11-3 11l-28 0c-3 0-4-5-4-11l0-286c0-6 0-11 4-11z"/>
<glyph glyph-name="graph-11-calque3" unicode="&#71;" d="M414 105l28 0c3 0 4 3 4 8l0 208c0 4-2 8-4 8l-28 0c-2 0-3-4-3-8l0-209c0-5 1-7 3-7z m-56-5l28 0c2 0 3 5 3 10l0 254c0 5-2 10-3 10l-28 0c-3 0-4-5-4-10l0-255c0-4 1-9 4-9z m-58-45l28 0c2 0 3 5 3 8l0 226c0 5-1 8-3 8l-28 0c-3 0-4-4-4-8l0-226c0-5 1-8 4-8z m-57 13l28 0c3 0 4 3 4 7l0 178c0 3-2 7-4 7l-28 0c-3 0-4-4-4-7l0-179c-1-4 0-6 4-6z m-58 55l28 0c3 0 4 5 4 11l0 286c0 6-2 11-4 11l-28 0c-3 0-3-6-3-11l0-286c0-7 1-11 3-11z m-58-34l28 0c3 0 4 5 4 9l0 225c0 6-2 8-4 8l-28 0c-2 0-3-4-3-8l0-225c1-5 2-9 3-9z m-57-35l28 0c3 0 4 4 4 6l0 168c0 4-2 7-4 7l-28 0c-2 0-3-4-3-7l0-168c-1-3 0-6 3-6z m399 33l28 0c2 0 3 5 3 11l0 286c0 6-2 11-3 11l-28 0c-3 0-4-6-4-11l0-286c0-7 0-11 4-11z"/>
<glyph glyph-name="graph-11-calque4" unicode="&#72;" d="M127 36l28 0c3 0 4 5 4 8l0 239c0 5-2 8-4 8l-28 0c-2 0-3-5-3-8l0-239c1-5 2-8 3-8z m58 0l28 0c3 0 4 6 4 11l0 307c0 6-2 11-4 11l-28 0c-3 0-3-6-3-11l0-308c-1-6 1-10 3-10z m58 0l28 0c3 0 4 4 4 7l0 157c0 3-2 7-4 7l-28 0c-3 0-4-4-4-7l0-158c-2-3 1-6 4-6z m57 0l28 0c2 0 3 5 3 8l0 128c0 6-1 9-3 9l-28 0c-3 0-4-5-4-9l0-129c0-4 2-7 4-7z m58 0l28 0c2 0 3 5 3 10l0 291c0 5-2 10-3 10l-28 0c-3 0-4-5-4-10l0-291c-1-6 1-10 4-10z m56 0l28 0c3 0 4 5 4 8l0 226c0 5-2 8-4 8l-28 0c-2 0-3-4-3-8l0-226c0-5 1-8 3-8z m-344 0l28 0c3 0 4 4 4 6l0 96c0 4-2 6-4 6l-28 0c-2 0-3-3-3-6l0-96c-1-4 1-6 3-6z m399 0l28 0c2 0 3 6 3 11l0 251c0 6-2 11-3 11l-28 0c-3 0-4-6-4-11l0-251c-2-6 1-11 4-11z"/>
<glyph glyph-name="graph-12-calque2" unicode="&#73;" d="M414 139l28 0c3 0 4 5 4 11l0 285c0 7-2 11-4 11l-28 0c-2 0-3-5-3-11l0-286c0-5 1-10 3-10z m-56 0l28 0c2 0 3 5 3 11l0 285c0 7-2 11-3 11l-28 0c-3 0-4-5-4-11l0-286c0-5 1-10 4-10z m-58 0l28 0c2 0 3 5 3 11l0 285c0 7-1 11-3 11l-28 0c-3 0-4-5-4-11l0-286c0-5 1-10 4-10z m-57 0l28 0c3 0 4 5 4 11l0 285c0 7-2 11-4 11l-28 0c-3 0-4-5-4-11l0-286c-1-5 0-10 4-10z m-58 0l28 0c3 0 4 5 4 11l0 285c0 7-2 11-4 11l-28 0c-3 0-3-5-3-11l0-286c0-5 1-10 3-10z m-58 0l28 0c3 0 4 5 4 11l0 285c0 7-2 11-4 11l-28 0c-2 0-3-5-3-11l0-286c1-5 2-10 3-10z m-57 0l28 0c3 0 4 5 4 11l0 285c0 7-2 11-4 11l-28 0c-2 0-3-5-3-11l0-286c-1-5 0-10 3-10z m399 0l28 0c2 0 3 5 3 11l0 286c0 6-2 11-3 11l-28 0c-3 0-4-5-4-11l0-286c0-6 0-11 4-11z"/>
<glyph glyph-name="graph-12-calque3" unicode="&#74;" d="M414 123l28 0c3 0 4 5 4 11l0 286c0 6-2 11-4 11l-28 0c-2 0-3-6-3-11l0-286c0-7 1-11 3-11z m-56-15l28 0c2 0 3 6 3 11l0 286c0 6-2 10-3 10l-28 0c-3 0-4-5-4-10l0-287c0-5 1-10 4-10z m-58-48l28 0c2 0 3 6 3 11l0 286c0 6-1 11-3 11l-28 0c-3 0-4-6-4-11l0-287c0-6 1-10 4-10z m-57 27l28 0c3 0 4 5 4 11l0 285c0 6-2 11-4 11l-28 0c-3 0-4-6-4-11l0-286c-1-6 0-10 4-10z m-58 36l28 0c3 0 4 5 4 11l0 286c0 6-2 11-4 11l-28 0c-3 0-3-6-3-11l0-286c0-7 1-11 3-11z m-58-19l28 0c3 0 4 5 4 11l0 286c0 6-2 11-4 11l-28 0c-2 0-3-6-3-11l0-286c1-7 2-11 3-11z m-57-37l28 0c3 0 4 5 4 11l0 286c0 6-2 11-4 11l-28 0c-2 0-3-6-3-11l0-286c-1-7 0-11 3-11z m399 20l28 0c2 0 3 5 3 11l0 286c0 6-2 11-3 11l-28 0c-3 0-4-6-4-11l0-286c0-7 0-11 4-11z"/>
<glyph glyph-name="graph-12-calque4" unicode="&#75;" d="M127 36l28 0c3 0 4 6 4 11l0 302c0 6-2 10-4 10l-28 0c-2 0-3-5-3-10l0-303c1-6 2-10 3-10z m58 0l28 0c3 0 4 6 4 11l0 307c0 6-2 11-4 11l-28 0c-3 0-3-6-3-11l0-308c-1-6 1-10 3-10z m58 0l28 0c3 0 4 6 4 11l0 250c0 6-2 11-4 11l-28 0c-3 0-4-5-4-11l0-251c-2-6 1-10 4-10z m57 0l28 0c2 0 3 6 3 11l0 162c0 7-1 11-3 11l-28 0c-3 0-4-5-4-11l0-163c0-6 2-10 4-10z m58 0l28 0c2 0 3 6 3 11l0 327c0 6-2 11-3 11l-28 0c-3 0-4-6-4-11l0-327c-1-7 1-11 4-11z m56 0l28 0c3 0 4 6 4 11l0 285c0 7-2 11-4 11l-28 0c-2 0-3-5-3-11l0-286c0-6 1-10 3-10z m-344 0l28 0c3 0 4 6 4 11l0 162c0 7-2 11-4 11l-28 0c-2 0-3-5-3-11l0-163c-1-6 1-10 3-10z m399 0l28 0c2 0 3 6 3 11l0 251c0 6-2 11-3 11l-28 0c-3 0-4-6-4-11l0-251c-2-6 1-11 4-11z"/>
<glyph glyph-name="graph-13-calque1" unicode="&#76;" d="M17 20c-3 0-6 2-9 4-3 5-3 12 2 17l123 96 77-78 104 30 167-21c7-1 11-7 10-13-1-6-6-11-12-10l-162 21-112-33-73 73-108-84c-2-2-4-2-7-2z"/>
<glyph glyph-name="graph-13-calque2" unicode="&#77;" d="M480 268c0 7-5 13-12 13-4 0-7-2-9-4l-186-182-60 172-104 107-92-346 25-6 81 302 68-71 71-204 215 210c2 3 3 6 3 9z"/>
<glyph glyph-name="graph-13-calque3" unicode="&#78;" d="M32 20c-2 0-4 0-6 1-7 2-10 11-7 18l99 231 88-169 56 133 49-97 131 228c4 6 12 9 19 5 7-3 9-12 6-19l-158-272-45 90-56-132-88 169-76-178c-2-5-7-8-12-8z"/>
<glyph glyph-name="graph-13-calque4" unicode="&#79;" d="M22 30l0 48 23 0 0 17-23 0 0 87 23 0 0 17-23 0 0 85 23 0 0 18-23 0 0 86 23 0 0 17-23 0 0 41-17 0 0-434 502 0 0 18z"/>
<glyph glyph-name="graph-15-calque1" unicode="&#81;" d="M239 239l0 268c-131-9-234-118-234-251 0-139 112-251 251-251 60 0 116 22 159 57z"/>
<glyph glyph-name="graph-15-calque2" unicode="&#82;" d="M274 274l233 0c-9 124-109 224-233 233z"/>
<glyph glyph-name="graph-15-calque3" unicode="&#83;" d="M441 86c38 40 62 94 66 152l-219 0z"/>
<glyph glyph-name="alert-graph-4-calque5" unicode="&#80;" d="M328 374c-6 0-10-2-14-7-3-5-5-12-5-21 0-8 2-15 5-20 4-5 8-7 14-7 5 0 10 2 13 7 3 5 5 12 5 20 0 9-2 16-5 21-3 5-8 7-13 7z m0 13c10 0 18-4 25-11 6-8 9-17 9-30 0-12-3-22-10-29-6-7-14-11-24-11-11 0-19 4-25 11-6 7-9 17-9 29 0 13 3 22 9 30 6 7 14 11 25 11z m-102 60c-6 0-10-3-14-8-3-5-5-11-5-20 0-9 2-15 5-20 4-5 8-8 14-8 5 0 10 3 13 8 4 5 5 11 5 20 0 9-1 15-5 20-3 5-8 8-13 8z m89 12l16 0-92-153-16 0z m-89 0c10 0 18-3 25-11 6-7 9-17 9-29 0-12-3-22-9-29-6-7-15-11-25-11-11 0-19 4-25 11-6 7-9 17-9 29 0 12 3 22 9 29 6 8 14 11 25 11z"/>
<glyph glyph-name="binary-sigma" unicode="&#84;" d="M218 175l-4 3 0-47 47 0z m-35 230l-91 0 0-122 91 0z m-29-91l-30 0 0 61 30 0z m60 0l0-25 90 0 0 25-29 0 0 91-61 0 0-30 31 0 0-61z m39-214l-192 0 0 366 214 0 91-91 0-86 30 0 0 116-91 92-273 0 0-427 196 0z m-161 62l0-30 91 0 0 30-29 0 0 91-62 0 0-30 31 0 0-61z m369-80l10 22 9 0-14-89-223 0 0 18 77 90-77 77 0 52 227 0 10-60-8 0-4 9c-8 18-15 21-33 21l-153 0 82-82-69-81 126 0c27 1 34 11 40 23z"/>
<glyph glyph-name="binary" unicode="&#85;" d="M48 13l0 486 312 0 104-104 0-382z m382 347l-105 104-243 0 0-417 348 0z m-209-104l-104 0 0 139 104 0z m-34 104l-34 0 0-69 34 0z m0-243l34 0 0-34-104 0 0 34 35 0 0 70-35 0 0 34 70 0z m138 174l34 0 0-35-103 0 0 35 35 0 0 69-35 0 0 35 69 0z m35-209l-104 0 0 139 104 0z m-35 105l-34 0 0-70 34 0z"/>
<glyph glyph-name="heat-map-graph-calque1" unicode="&#86;" d="M22 405l0 41-17 0 0-434 502 0 0 18-485 0 0 48"/>
<glyph glyph-name="heat-map-graph-calque2" unicode="&#87;" d="M41 444l93 0 0-37-93 0z m93-36l93 0 0-37-93 0z m187-36l93 0 0-37-93 0z m-280 0l93 0 0-37-93 0z m187-35l93 0 0-37-93 0z m0-73l93 0 0-37-93 0z m93 37l93 0 0-37-93 0z m93-110l93 0 0-37-93 0z m0 37l93 0 0-37-93 0z m-186 0l93 0 0-37-93 0z m0-74l93 0 0-37-93 0z m93-35l93 0 0-37-93 0z m93 0l93 0 0-37-93 0z m-373-36l93 0 0-37-93 0z m0 254l93 0 0-37-93 0z m373-73l93 0 0-37-93 0z m-279 37l93 0 0-37-93 0z m93 143l93 0 0-37-93 0z m93-36l93 0 0-37-93 0z m-186-217l93 0 0-37-93 0z m-94-37l93 0 0-37-93 0z"/>
<glyph glyph-name="heat-map-graph-calque3" unicode="&#88;" d="M321 444l93 0 0-37-93 0z m93-36l93 0 0-37-93 0z m-279-144l93 0 0-37-93 0z m-94 37l93 0 0-37-93 0z m280-110l93 0 0-37-93 0z m-187-72l93 0 0-37-93 0z m94-36l93 0 0-37-93 0z m-94 289l93 0 0-37-93 0z m187-35l93 0 0-37-93 0z m-186-109l93 0 0-37-93 0z m186-74l93 0 0-37-93 0z m-280-35l93 0 0-37-93 0z m280-36l93 0 0-37-93 0z"/>
<glyph glyph-name="heat-map-graph-calque4" unicode="&#89;" d="M228 408l93 0 0-37-93 0z m186-36l93 0 0-37-93 0z m-186 0l93 0 0-37-93 0z m-94-35l93 0 0-37-93 0z m280 0l93 0 0-37-93 0z m-373-73l93 0 0-37-93 0z m0-73l93 0 0-37-93 0z m280 37l93 0 0-37-93 0z m-280 0l93 0 0-37-93 0z m93-74l93 0 0-37-93 0z m280 0l93 0 0-37-93 0z m-186-35l93 0 0-37-93 0z m186-36l93 0 0-37-93 0z m-280 361l93 0 0-37-93 0z m280 0l93 0 0-37-93 0z m-373-36l93 0 0-37-93 0z m280-144l93 0 0-37-93 0z m-93 37l93 0 0-37-93 0z m186 0l93 0 0-37-93 0z m-186-110l93 0 0-37-93 0z m-94-108l93 0 0-37-93 0z"/>
<glyph glyph-name="hourly-analysis-calque1" unicode="&#90;" d="M22 30l0 48 23 0 0 17-23 0 0 87 23 0 0 17-23 0 0 85 23 0 0 18-23 0 0 86 23 0 0 17-23 0 0 41-17 0 0-434 502 0 0 18z"/>
<glyph glyph-name="hourly-analysis-calque2" unicode="&#48;" d="M414 118l28 0c3 0 4 5 4 8l0 185c0 5-2 8-4 8l-28 0c-2 0-3-5-3-8l0-185c0-4 1-8 3-8z m-56 10l28 0c2 0 3 5 3 10l0 213c0 6-2 10-3 10l-28 0c-3 0-4-4-4-10l0-213c0-5 1-10 4-10z m-58-10l28 0c2 0 3 5 3 8l0 185c0 5-1 8-3 8l-28 0c-3 0-4-5-4-8l0-185c0-4 1-8 4-8z m-57-17l28 0c3 0 4 4 4 7l0 137c0 3-2 7-4 7l-28 0c-3 0-4-4-4-7l0-138c1-4 0-6 4-6z m-58 39l28 0c3 0 4 5 4 11l0 244c0 6-2 10-4 10l-28 0c-3 0-3-5-3-10l0-245c0-6 1-10 3-10z m-58-22l28 0c3 0 4 5 4 8l0 185c0 5-2 8-4 8l-28 0c-2 0-3-5-3-8l0-185c1-4 2-8 3-8z m-57-20l28 0c3 0 4 3 4 6l0 125c0 4-2 7-4 7l-28 0c-2 0-3-4-3-7l0-126c2-3 1-5 3-5z m399 42l28 0c2 0 3 5 3 11l0 245c0 6-2 10-3 10l-28 0c-3 0-4-5-4-10l0-245c0-7 0-11 4-11z"/>
<glyph glyph-name="hourly-analysis-calque3" unicode="&#49;" d="M414 106l28 0c3 0 4 3 4 8l0 166c0 4-2 8-4 8l-28 0c-2 0-3-4-3-8l0-167c0-5 1-7 3-7z m-56-5l28 0c2 0 3 5 3 10l0 212c0 6-2 10-3 10l-28 0c-3 0-4-4-4-10l0-213c0-4 1-9 4-9z m-58-45l28 0c2 0 3 4 3 8l0 184c0 6-1 8-3 8l-28 0c-3 0-4-4-4-8l0-184c0-5 1-8 4-8z m-57 13l28 0c3 0 4 3 4 7l0 136c0 4-2 7-4 7l-28 0c-3 0-4-3-4-7l0-137c1-4 0-6 4-6z m-58 55l28 0c3 0 4 5 4 11l0 244c0 7-2 11-4 11l-28 0c-3 0-3-5-3-11l0-244c0-7 1-11 3-11z m-58-34l28 0c3 0 4 5 4 8l0 185c0 5-2 8-4 8l-28 0c-2 0-3-5-3-8l0-185c1-4 2-8 3-8z m-57-35l28 0c3 0 4 4 4 6l0 127c0 3-2 6-4 6l-28 0c-2 0-3-3-3-6l0-127c2-5 1-7 3-6z m399 33l28 0c2 0 3 5 3 10l0 245c0 6-2 11-3 11l-28 0c-3 0-4-5-4-11l0-245c0-6 0-10 4-10z"/>
<glyph glyph-name="hourly-analysis-calque4" unicode="&#50;" d="M127 37l28 0c3 0 4 5 4 8l0 197c0 5-2 8-4 8l-28 0c-2 0-3-4-3-8l0-197c0-5 2-8 3-8z m58 0l28 0c3 0 4 5 4 11l0 265c0 7-2 11-4 11l-28 0c-3 0-3-5-3-11l0-266c0-6 1-10 3-10z m58 0l28 0c3 0 4 4 4 7l0 115c0 4-2 7-4 7l-28 0c-3 0-4-3-4-7l0-116c0-3 1-6 4-6z m57 0l28 0c2 0 3 5 3 8l0 87c0 5-1 8-3 8l-28 0c-3 0-4-5-4-8l0-88c0-4 2-7 4-7z m58 0l28 0c2 0 3 5 3 10l0 249c0 6-2 10-3 10l-28 0c-3 0-4-4-4-10l0-249c0-7 1-10 4-10z m56 0l28 0c3 0 4 5 4 8l0 184c0 6-2 8-4 8l-28 0c-2 0-3-4-3-8l0-184c0-5 1-8 3-8z m-344 0l28 0c3 0 4 4 4 6l0 96c0 4-2 6-4 6l-28 0c-2 0-3-3-3-6l0-96c0-4 1-6 3-6z m399 0l28 0c2 0 3 5 3 11l0 209c0 7-2 11-3 11l-28 0c-3 0-4-5-4-11l0-209c0-7 1-11 4-11z"/>
<glyph glyph-name="hourly-analysis-calque5" unicode="&#51;" d="M67 444l433 0 0-7-433 0z"/>
<glyph glyph-name="ranking-analysis-calque1" unicode="&#52;" d="M3 502l0 50 28 0 0-50z m3 3l22 0 0 44-22 0z m1 12l9 0 0 31-10-2 0 6 10 2 6 0 0-37 9 0 0-5-24 0z m4 0l20 0 0-5-27 0 0 5c2 2 5 5 9 9 4 3 6 6 7 7 2 2 3 4 4 5 0 1 1 3 1 4 0 2-1 4-3 5-1 2-3 3-6 3-1 0-3-1-5-1-2-1-4-2-7-3l0 6c3 0 5 1 7 2 2 0 4 0 5 0 5 0 8-1 11-3 2-2 3-5 3-9 0-1 0-3-1-4 0-2-1-4-3-6-1 0-2-2-5-4-2-3-6-7-10-11z m12 17c3 0 5-1 6-3 2-2 3-4 3-7 0-4-2-7-5-9-2-3-6-4-12-4-1 0-3 0-5 1-2 0-4 1-6 1l0 6c2-1 4-2 5-2 2-1 4-1 6-1 4 0 6 1 8 2 2 1 3 3 3 6 0 3-1 4-2 6-2 1-5 2-8 2l-4 0 0 5 5 0c2 0 4 0 6 1 1 1 2 3 2 5 0 2-1 4-2 5-2 1-4 2-7 2-1 0-3-1-5-1-1 0-3-1-5-1l0 5c2 0 4 1 6 1 1 0 3 0 5 0 4 0 8-1 10-3 2-2 4-4 4-7 0-3-1-5-2-6-2-2-3-3-6-4z m-1 15l-15-23 15 0z m-2 5l7 0 0-28 6 0 0-4-6 0 0-10-5 0 0 10-19 0 0 5z m-17-52l0 48 27 0 0-48z m3 3l21 0 0 42-21 0z m12 41l-7-19 15 0z m-3 5l6 0 16-39-6 0-4 10-17 0-4-10-6 0z m24-22c-1 0-2 0-3-2-1-1-2-3-2-5 0-2 1-4 2-5 1-2 2-2 3-2 2 0 3 0 4 2 1 1 1 3 1 5 0 2 0 4-1 5-1 2-2 2-4 2z m0 4c3 0 5-1 7-3 2-2 2-5 2-8 0-3 0-6-2-8-2-2-4-3-7-3-3 0-5 1-6 3-2 2-3 5-3 8 0 3 1 6 3 8 1 2 3 3 6 3z m-27 16c-1 0-3-1-4-2 0-2-1-3-1-6 0-2 1-4 1-5 1-1 3-2 4-2 2 0 3 1 4 2 1 1 1 3 1 5 0 3 0 4-1 6-1 1-2 2-4 2z m24 3l4 0-25-41-4 0z m-24 0c3 0 5-1 7-3 1-2 2-4 2-8 0-3-1-6-2-7-2-2-4-3-7-3-3 0-5 1-7 3-1 1-2 4-2 7 0 4 1 6 2 8 2 2 4 3 7 3z m468-61l-448 0c-15 0-27-12-27-26l0-417c0-15 12-26 27-26l449 0c15 0 26 11 26 26l0 417c0 14-12 26-27 26z m-381-439l-73 0 0 63 73 0z m0 79l-73 0 0 79 73 0z m0 96l-73 0 0 74 73 0z m0 90l-73 0 0 65 73 0z m104-265l-87 0 0 63 87 0z m0 79l-87 0 0 79 87 0z m0 96l-87 0 0 74 87 0z m0 90l-87 0 0 65 87 0z m96-265l-80 0 0 63 80 0z m0 79l-80 0 0 79 80 0z m0 96l-80 0 0 74 80 0z m0 90l-80 0 0 65 80 0z m89-265l-74 0 0 63 74 0z m0 79l-74 0 0 79 74 0z m0 96l-74 0 0 74 74 0z m0 90l-74 0 0 65 74 0z m98-265l-81 0 0 63 81 0z m0 79l-81 0 0 79 81 0z m0 96l-81 0 0 74 81 0z m0 90l-81 0 0 65 81 0z"/>
<glyph glyph-name="ranking-analysis-calque2" unicode="&#53;" d="M26 470l460 0 0-88-460 0z"/>
</font>
</defs>
</svg>
